<?xml version="1.0" encoding="UTF-8" standalone="no"?>
<!-- Created with Inkscape (http://www.inkscape.org/) -->

<svg
   width="512"
   height="512"
   viewBox="0 0 135.46667 135.46667"
   version="1.1"
   id="svg5"
   xml:space="preserve"
   inkscape:version="1.2.1 (9c6d41e410, 2022-07-14, custom)"
   sodipodi:docname="icon.svg"
   inkscape:export-filename="icon.png"
   inkscape:export-xdpi="96"
   inkscape:export-ydpi="96"
   xmlns:inkscape="http://www.inkscape.org/namespaces/inkscape"
   xmlns:sodipodi="http://sodipodi.sourceforge.net/DTD/sodipodi-0.dtd"
   xmlns="http://www.w3.org/2000/svg"
   xmlns:svg="http://www.w3.org/2000/svg"><sodipodi:namedview
     id="namedview7"
     pagecolor="#ffffff"
     bordercolor="#000000"
     borderopacity="0.25"
     inkscape:showpageshadow="2"
     inkscape:pageopacity="0.0"
     inkscape:pagecheckerboard="0"
     inkscape:deskcolor="#d1d1d1"
     inkscape:document-units="px"
     showgrid="false"
     inkscape:zoom="0.69544071"
     inkscape:cx="150.9834"
     inkscape:cy="290.4633"
     inkscape:window-width="1368"
     inkscape:window-height="717"
     inkscape:window-x="0"
     inkscape:window-y="27"
     inkscape:window-maximized="1"
     inkscape:current-layer="layer1" /><defs
     id="defs2" /><g
     inkscape:label="Слой 1"
     inkscape:groupmode="layer"
     id="layer1"
     style="display:inline"><circle
       style="display:inline;fill:#dbe3e2;stroke:#000000;stroke-width:1.21695"
       id="path4355-1"
       cx="98.71772"
       cy="76.816887"
       r="5.7321191" /><circle
       style="display:inline;fill:#dbe3e2;stroke:#000000;stroke-width:1.21695"
       id="path4355-9"
       cx="78.007553"
       cy="76.662132"
       r="5.7321191" /><circle
       style="display:inline;fill:#dbe3e2;stroke:#000000;stroke-width:1.21695"
       id="path4355-2"
       cx="57.725719"
       cy="76.708374"
       r="5.7321191" /><circle
       style="display:inline;fill:#dbe3e2;stroke:#000000;stroke-width:1.21695"
       id="path4355-56"
       cx="37.374859"
       cy="76.433449"
       r="5.7321191" /><circle
       style="display:inline;fill:#dbe3e2;stroke:#000000;stroke-width:1.21695"
       id="path4355-3"
       cx="110.42661"
       cy="54.917747"
       r="5.7321191" /><circle
       style="display:inline;fill:#dbe3e2;stroke:#000000;stroke-width:1.21695"
       id="path4355-5"
       cx="89.356316"
       cy="54.965916"
       r="5.7321191" /><circle
       style="display:inline;fill:#dbe3e2;stroke:#000000;stroke-width:1.21695"
       id="path4355-7"
       cx="68.680252"
       cy="54.958046"
       r="5.7321191" /><circle
       style="display:inline;fill:#dbe3e2;stroke:#000000;stroke-width:1.21695"
       id="path4355"
       cx="26.487888"
       cy="55.259575"
       r="5.7321191" /><circle
       style="display:inline;fill:#dbe3e2;stroke:#000000;stroke-width:1.21695"
       id="path4355-6"
       cx="47.769508"
       cy="54.715611"
       r="5.7321191" /><g
       id="g4295"
       transform="matrix(1.5331707,0,0,1.5331707,-34.813252,-28.205588)"><path
         style="display:inline;fill:none;stroke:#000000;stroke-width:0.79375"
         d="m 98.34782,43.545595 c 5.59569,0.545335 6.97808,5.534106 6.53433,10.502851 -1.6385,10.316828 -4.6969,23.916385 -11.445947,24.768545"
         id="path4181-3"
         sodipodi:nodetypes="ccc" /><path
         style="display:inline;fill:none;stroke:#000000;stroke-width:0.79375"
         d="m 36.450415,43.647854 c -5.59569,0.545335 -6.97808,5.534106 -6.53433,10.502851 1.6385,10.316828 4.6969,23.916385 11.445947,24.768545"
         id="path4181-3-2"
         sodipodi:nodetypes="ccc" /><path
         style="fill:none;stroke:#000000;stroke-width:0.79375"
         d="M 36.237043,43.65173 98.475034,43.5552"
         id="path4287"
         sodipodi:nodetypes="cc" /><path
         style="fill:none;stroke:#000000;stroke-width:0.79375"
         d="M 41.207506,78.91911 93.495535,78.85203"
         id="path4289"
         sodipodi:nodetypes="cc" /></g><path
       style="fill:#afdde9;stroke:#000000;stroke-width:0.874954"
       d="M 26.43338,91.267265 C 20.688533,88.569525 16.178224,78.315277 12.688766,60.018726 10.664707,49.405802 12.141282,43.293057 17.373715,40.62396 l 2.001107,-1.020778 48.837297,-0.07627 c 32.677301,-0.05104 49.204691,0.02263 49.947601,0.222703 1.70107,0.458046 3.83164,2.032046 4.88589,3.609519 2.38075,3.562358 2.79725,8.20179 1.41704,15.784644 -3.34069,18.35378 -7.97658,29.108926 -13.77801,31.964659 l -1.42249,0.700212 -40.685257,0.0717 -40.685261,0.0717 z m 34.304051,-8.877252 c 4.613218,-2.409971 4.549349,-9.095577 -0.109602,-11.472394 -0.954048,-0.486717 -1.592397,-0.583789 -3.279052,-0.498615 -2.417669,0.122086 -3.724208,0.82056 -5.02871,2.688345 -1.079767,1.546012 -1.277355,4.462463 -0.431832,6.373912 1.465947,3.314018 5.521586,4.647119 8.849196,2.908752 z m 20.146022,0.06729 c 2.708286,-1.36937 4.049687,-4.174641 3.407902,-7.126923 -0.669832,-3.081265 -3.110527,-5.071233 -6.208925,-5.062313 -5.800337,0.01667 -8.689736,6.538302 -4.777313,10.78278 1.912619,2.074943 5.089973,2.664627 7.578336,1.406458 z m 20.962947,-0.02121 c 3.84331,-2.091802 4.46974,-7.310561 1.24489,-10.371278 -2.86416,-2.718383 -7.761367,-2.043331 -9.865417,1.359894 -1.652977,2.673624 -1.0056,6.611782 1.38686,8.436596 1.37118,1.045851 2.17268,1.304243 4.11053,1.325187 1.320127,0.01428 2.032797,-0.156968 3.123137,-0.750399 z M 40.305596,82.111274 c 2.15631,-1.093437 3.255885,-2.699509 3.422182,-4.998555 0.297058,-4.10681 -2.347566,-7.032032 -6.357499,-7.032032 -2.089544,0 -3.569307,0.650235 -4.88189,2.145186 -1.848067,2.104828 -2.066226,5.575638 -0.493121,7.84536 1.09998,1.58709 3.473451,2.842083 5.375011,2.842083 0.89885,0 1.885066,-0.26947 2.935317,-0.802042 z M 30.133546,60.595497 c 0.816978,-0.566357 1.547187,-1.433644 2.083215,-2.47429 0.705614,-1.369865 0.804804,-1.845536 0.683864,-3.27938 -0.18847,-2.234376 -1.264007,-4.047999 -3.006008,-5.068878 -4.425491,-2.593512 -9.790056,0.37571 -9.790056,5.418672 0,2.001637 0.534705,3.362894 1.829573,4.657766 1.444797,1.444797 2.43786,1.793121 4.845429,1.699574 1.777322,-0.06906 2.287384,-0.214058 3.353983,-0.953464 z m 20.697362,-0.172406 c 1.964076,-0.98297 3.457822,-3.443181 3.453477,-5.687898 -0.0066,-3.436962 -3.089713,-6.520031 -6.526672,-6.526676 -4.775823,-0.0092 -7.895064,5.226604 -5.679075,9.532683 1.593963,3.09738 5.518965,4.300088 8.75227,2.681891 z m 20.566049,0.427622 c 2.341116,-1.110933 3.67764,-3.264123 3.6845,-5.935857 0.01262,-4.920527 -5.035477,-7.910779 -9.456178,-5.601377 -2.253729,1.177363 -3.322698,2.979985 -3.308087,5.578507 0.01635,2.905158 1.441349,5.119402 3.935213,6.114696 1.160025,0.462962 4.023174,0.376161 5.144552,-0.155969 z m 20.746166,-0.07352 c 2.41641,-1.232758 3.55729,-3.107375 3.55729,-5.845116 0,-2.116255 -0.64609,-3.58288 -2.166382,-4.917704 -2.850255,-2.502561 -7.754792,-1.706017 -9.675486,1.571396 -1.944096,3.317353 -0.693481,7.68195 2.634232,9.193363 1.591978,0.723066 4.230999,0.722158 5.650346,-0.0021 z M 113.40085,60.59239 c 2.59422,-1.292758 4.00286,-4.293666 3.31535,-7.06287 -1.06363,-4.28411 -5.46751,-6.262496 -9.38488,-4.216037 -2.2629,1.182149 -3.29314,2.934519 -3.29314,5.601376 0,1.690261 0.12796,2.190072 0.86658,3.384768 1.7536,2.836381 5.4198,3.825744 8.49609,2.292763 z"
       id="path5833" /></g><g
     inkscape:groupmode="layer"
     id="layer2"
     inkscape:label="Слой 2" /></svg>
